<?xml version="1.0" standalone="no"?>
<!DOCTYPE svg PUBLIC "-//W3C//DTD SVG 20010904//EN"
 "http://www.w3.org/TR/2001/REC-SVG-20010904/DTD/svg10.dtd">
<svg version="1.0" xmlns="http://www.w3.org/2000/svg"
 width="2559.000000pt" height="1443.000000pt" viewBox="0 0 2559.000000 1443.000000"
 preserveAspectRatio="xMidYMid meet">

<g transform="translate(0.000000,1443.000000) scale(0.100000,-0.100000)"
fill="#198754" stroke="none">
<path d="M12055 14424 c-38 -2 -180 -8 -315 -14 -3073 -135 -5976 -912 -8160
-2183 -1972 -1148 -3222 -2660 -3514 -4250 -53 -286 -61 -388 -61 -762 0 -374
8 -476 61 -762 303 -1653 1618 -3193 3734 -4376 246 -137 803 -415 1064 -531
1948 -862 4201 -1375 6666 -1516 728 -42 1802 -42 2530 0 2466 141 4717 653
6666 1516 261 116 818 394 1064 531 472 264 849 508 1255 813 1383 1039 2243
2274 2479 3563 53 286 61 388 61 762 0 374 -8 476 -61 762 -104 566 -337 1143
-681 1684 -989 1554 -2928 2885 -5451 3743 -1039 353 -2174 623 -3350 796
-696 102 -1306 162 -2162 211 -171 10 -1667 20 -1825 13z m1540 -1274 c3293
-121 6251 -938 8280 -2287 1278 -851 2082 -1858 2339 -2933 68 -281 80 -398
80 -740 0 -267 -3 -323 -22 -450 -83 -527 -273 -1009 -586 -1485 -1096 -1663
-3565 -3001 -6711 -3635 -1011 -204 -1937 -316 -3145 -382 -318 -18 -1692 -18
-2010 0 -575 31 -1023 67 -1465 118 -3161 362 -5885 1406 -7501 2874 -750 682
-1230 1434 -1418 2220 -68 281 -80 398 -80 740 0 342 12 459 80 740 162 677
539 1328 1119 1928 1829 1896 5411 3141 9465 3291 310 12 1270 12 1575 1z"/>
<path d="M9830 9090 c-490 -35 -982 -278 -1277 -633 -347 -417 -488 -914 -422
-1492 45 -390 218 -756 492 -1042 270 -281 612 -463 1019 -539 128 -25 475
-30 618 -10 432 61 796 246 1093 556 242 252 400 565 468 925 30 155 37 474
15 640 -133 1003 -969 1668 -2006 1595z m395 -950 c44 -11 118 -39 165 -62 70
-34 102 -59 181 -137 84 -85 101 -108 147 -201 28 -58 60 -142 72 -187 77
-311 32 -681 -112 -903 -23 -36 -76 -99 -118 -141 -61 -61 -96 -86 -171 -123
-141 -70 -225 -88 -399 -89 -115 0 -163 4 -231 21 -160 39 -270 103 -376 216
-161 172 -234 390 -234 696 0 330 85 561 274 736 113 106 253 171 418 194 98
14 292 4 384 -20z"/>
<path d="M4820 7215 l0 -1825 505 0 505 0 0 675 0 675 53 0 54 0 363 -675 363
-675 565 0 564 0 -30 53 c-16 28 -201 349 -411 711 -209 363 -380 660 -379
661 2 0 44 16 93 34 167 62 295 143 411 263 126 129 212 282 262 466 24 89 26
114 26 292 0 168 -3 207 -22 282 -47 187 -131 351 -248 485 -148 168 -411 310
-672 362 -184 37 -294 41 -1159 41 l-843 0 0 -1825z m1648 965 c106 -25 199
-96 240 -184 34 -72 47 -173 33 -258 -22 -140 -92 -233 -210 -280 -53 -22 -71
-23 -378 -26 l-323 -3 0 380 0 381 298 0 c163 0 316 -5 340 -10z"/>
<path d="M12310 7215 l0 -1826 1023 4 c989 4 1026 4 1132 25 433 83 717 301
823 632 38 118 46 181 46 335 -1 174 -19 257 -84 393 -48 100 -83 153 -157
233 -98 106 -240 192 -386 234 -32 9 -57 18 -55 20 2 2 39 17 83 34 182 70
347 217 428 383 54 109 73 179 87 314 11 109 1 254 -26 357 -90 347 -371 574
-816 659 -110 21 -138 21 -1105 25 l-993 4 0 -1826z m1610 1014 c138 -17 216
-61 263 -147 47 -87 53 -240 11 -327 -26 -56 -87 -111 -152 -137 -54 -21 -72
-23 -389 -26 l-333 -3 0 319 c0 175 3 322 7 325 11 11 501 8 593 -4z m138
-1373 c156 -42 232 -140 240 -311 5 -108 -18 -181 -74 -239 -86 -89 -127 -96
-551 -96 l-353 0 0 330 0 330 343 0 c261 0 354 -4 395 -14z"/>
<path d="M15790 7215 l0 -1825 1070 0 1070 0 0 385 0 385 -565 0 -565 0 0
1440 0 1440 -505 0 -505 0 0 -1825z"/>
<path d="M18330 7215 l0 -1825 1165 0 1165 0 0 405 0 405 -660 0 -660 0 0 330
0 330 585 0 585 0 0 385 0 385 -585 0 -585 0 0 300 0 300 660 0 660 0 0 405 0
405 -1165 0 -1165 0 0 -1825z"/>
</g>
</svg>
